<svg xmlns="http://www.w3.org/2000/svg" xmlns:xlink="http://www.w3.org/1999/xlink" version="1.1" viewBox="0 0 172 172"><g fill="none" fill-rule="nonzero" stroke="none" stroke-width="1" stroke-linecap="butt" stroke-linejoin="miter" stroke-miterlimit="10" stroke-dasharray="" stroke-dashoffset="0" font-family="none" font-weight="none" font-size="none" text-anchor="none" style="mix-blend-mode: normal"><path d="M0,172v-172h172v172z" fill="none"/><g fill="#ffffff"><path d="M83.0975,10.32c-1.04812,0 -2.08281,0.215 -3.1175,0.5375c-2.08281,0.65844 -4.07156,1.89469 -5.805,3.655l-40.42,40.42h-23.435c-5.73781,0 -10.4275,4.68969 -10.4275,10.4275v41.28c0,5.73781 4.68969,10.4275 10.4275,10.4275h23.435l40.3125,40.0975c3.84313,3.85656 8.77469,5.54969 12.7925,3.655c4.04469,-1.90812 6.02,-6.50375 6.02,-11.825v-127.28c0,-5.16 -2.63375,-9.44656 -6.665,-10.8575c-1.00781,-0.34937 -2.06937,-0.5375 -3.1175,-0.5375zM83.205,17.2c0.34938,0 0.61813,0.02688 0.86,0.1075c0.98094,0.33594 1.935,1.20938 1.935,4.4075v127.28c0,3.66844 -1.20937,5.30781 -2.0425,5.6975c-0.83312,0.38969 -2.51281,0.43 -5.16,-2.2575l-43.3225,-43.3225c-0.06719,-0.04031 -0.14781,-0.08062 -0.215,-0.1075c0.25531,0.22844 -0.86,-1.94844 -0.86,-3.225v-39.56c0,-1.27656 1.15563,-3.48031 0.86,-3.225c0.08063,-0.06719 0.14781,-0.13437 0.215,-0.215l43.5375,-43.43c1.6125,-1.62594 3.13094,-2.13656 4.1925,-2.15zM10.32,62.0275h17.845c-0.44344,1.31688 -0.645,2.75469 -0.645,4.1925v39.56c0,1.43781 0.215,2.86219 0.645,4.1925h-17.845c-1.85437,0 -3.3325,-1.47812 -3.3325,-3.3325v-41.28c0,-1.85437 1.47813,-3.3325 3.3325,-3.3325zM109.7575,65.2525c-0.14781,0.02688 -0.29562,0.06719 -0.43,0.1075c-1.29,0.22844 -2.32469,1.16906 -2.6875,2.41875c-0.36281,1.26313 0.01344,2.60688 0.9675,3.49375l14.7275,14.7275l-14.7275,14.7275c-1.37062,1.37063 -1.37062,3.57438 0,4.945c1.37063,1.37063 3.57438,1.37063 4.945,0l14.7275,-14.7275l14.7275,14.7275c1.37063,1.37063 3.57438,1.37063 4.945,0c1.37063,-1.37062 1.37063,-3.57437 0,-4.945l-14.7275,-14.7275l14.7275,-14.7275c1.11531,-1.03469 1.41094,-2.67406 0.73906,-4.03125c-0.65844,-1.37062 -2.15,-2.12312 -3.64156,-1.88125c-0.76594,0.08063 -1.49156,0.43 -2.0425,0.9675l-14.7275,14.7275l-14.7275,-14.7275c-0.71219,-0.76594 -1.74687,-1.15562 -2.795,-1.075z"/></g></g></svg>