<svg xmlns="http://www.w3.org/2000/svg" xmlns:xlink="http://www.w3.org/1999/xlink" version="1.1" viewBox="0 0 172 172"><g fill="none" fill-rule="nonzero" stroke="none" stroke-width="1" stroke-linecap="butt" stroke-linejoin="miter" stroke-miterlimit="10" stroke-dasharray="" stroke-dashoffset="0" font-family="none" font-weight="none" font-size="none" text-anchor="none" style="mix-blend-mode: normal"><path d="M0,172v-172h172v172z" fill="none"/><g fill="#ffffff"><path d="M83.0975,10.32c-1.04812,0 -2.08281,0.215 -3.1175,0.5375c-2.08281,0.65844 -4.07156,1.89469 -5.805,3.655l-40.42,40.42h-23.435c-5.73781,0 -10.4275,4.68969 -10.4275,10.4275v41.28c0,5.73781 4.68969,10.4275 10.4275,10.4275h23.435l40.3125,40.0975c3.84313,3.85656 8.77469,5.54969 12.7925,3.655c4.04469,-1.90812 6.02,-6.50375 6.02,-11.825v-127.28c0,-5.16 -2.63375,-9.44656 -6.665,-10.8575c-1.00781,-0.34937 -2.06937,-0.5375 -3.1175,-0.5375zM83.205,17.2c0.34938,0 0.61813,0.02688 0.86,0.1075c0.98094,0.33594 1.935,1.20938 1.935,4.4075v127.28c0,3.66844 -1.20937,5.30781 -2.0425,5.6975c-0.83312,0.38969 -2.51281,0.43 -5.16,-2.2575l-43.3225,-43.3225c-0.06719,-0.04031 -0.14781,-0.08062 -0.215,-0.1075c0.25531,0.22844 -0.86,-1.94844 -0.86,-3.225v-39.56c0,-1.27656 1.15563,-3.48031 0.86,-3.225c0.08063,-0.06719 0.14781,-0.13437 0.215,-0.215l43.5375,-43.43c1.6125,-1.62594 3.13094,-2.13656 4.1925,-2.15zM119.4325,41.71c-1.53187,0.18813 -2.75469,1.38406 -2.96969,2.91594c-0.22844,1.51844 0.59125,3.01 2.00219,3.64156c13.42406,7.24281 22.575,21.37906 22.575,37.7325c0,16.29969 -9.11062,30.47625 -22.4675,37.7325c-1.66625,0.91375 -2.27094,3.01 -1.34375,4.67625c0.91375,1.66625 3.01,2.27094 4.67625,1.34375c15.50688,-8.42531 26.015,-24.88625 26.015,-43.7525c0,-18.92 -10.535,-35.44812 -26.1225,-43.86c-0.61812,-0.34937 -1.33031,-0.49719 -2.0425,-0.43c-0.1075,0 -0.215,0 -0.3225,0zM10.32,62.0275h17.845c-0.44344,1.31688 -0.645,2.75469 -0.645,4.1925v39.56c0,1.43781 0.215,2.86219 0.645,4.1925h-17.845c-1.85437,0 -3.3325,-1.47812 -3.3325,-3.3325v-41.28c0,-1.85437 1.47813,-3.3325 3.3325,-3.3325zM105.0275,63.3175c-1.66625,0.20156 -2.92937,1.57219 -3.01,3.25188c-0.08062,1.66625 1.04813,3.15781 2.6875,3.52062c7.04125,1.84094 12.255,8.26406 12.255,15.91c0,7.64594 -5.21375,14.06906 -12.255,15.91c-1.84094,0.47031 -2.94281,2.35156 -2.4725,4.1925c0.47031,1.84094 2.35156,2.94281 4.1925,2.4725c10.01094,-2.62031 17.415,-11.78469 17.415,-22.575c0,-10.79031 -7.40406,-19.95469 -17.415,-22.575c-0.45687,-0.13437 -0.92719,-0.16125 -1.3975,-0.1075z"/></g></g></svg>